<?xml version="1.0" encoding="UTF-8"?>
<svg enable-background="new 0 0 512 509.54" viewBox="0 0 512 509.54" xmlns="http://www.w3.org/2000/svg">
<style type="text/css">.st0{fill:#843E3E;}</style>
<g>
<g>
<g>
<path d="m0 283.62c1.61-8.48 2.83-17.05 4.89-25.42 6.43-26.15 19.25-48.85 38.14-68 21.65-21.95 43.53-43.68 65.36-65.45 13.11-13.07 31.4-12.48 42.61 2.2 5.09 6.67 8.15 14.89 12.17 22.48 0.39-0.37 1.6-1.44 2.74-2.58 20.04-20.03 40.74-39.45 59.93-60.26 20.22-21.91 55.42-15.86 64.89 14.26 1.11-0.87 2.16-1.54 3.03-2.39 4.75-4.68 9.38-9.48 14.18-14.11 15.14-14.59 37.79-14.86 52.2-0.69 14.29 14.06 14.53 37.12 0.53 52.38-1.23 1.34-2.47 2.65-3.61 3.88 5.25 2.84 10.33 5.58 15.51 8.38 19.39-14.49 38.92-14.42 53.19 0.39 14.62 15.18 13.34 34.86-3.84 55.67 0.87 0.45 1.65 0.95 2.5 1.27 25.67 9.67 33.04 41.03 14.15 60.94-5.12 5.4-10.82 10.26-15.58 14.74 6.78 5 13.65 8.5 18.39 13.87 13.07 14.81 11.61 36.53-2.81 51.08-24.75 24.98-49.65 49.82-74.55 74.65-17.23 17.18-33.83 35.07-51.97 51.24-71.04 63.31-182.95 43.69-229.1-39.62-1.12-2.03-3.07-3.92-5.1-5.07-45.18-25.73-70.61-64.52-76.99-115.99-0.16-1.3-0.57-2.56-0.86-3.84v-24.01zm153.19 143.9c32.68-0.71 64.47-14.07 90.8-40.52 38.22-38.38 76.57-76.63 114.83-114.97 1.99-1.99 3.98-4.1 5.46-6.46 7.42-11.83 2.06-26.25-11.03-29.46-7.86-1.93-14.25 1.06-19.82 6.66-23.16 23.27-46.4 46.46-69.62 69.67-1.41 1.41-2.79 2.95-4.47 3.96-3.71 2.21-7.43 1.79-10.53-1.23-3.1-3.01-3.72-6.72-1.53-10.48 1.07-1.83 2.72-3.35 4.25-4.87 35.34-35.37 70.69-70.72 106.03-106.09 1.65-1.65 3.35-3.29 4.72-5.15 8.23-11.19 4-26.38-8.59-30.35-8.02-2.53-14.88-0.35-20.91 5.7-36.09 36.26-72.31 72.41-108.49 108.58-1.3 1.29-2.54 2.67-4 3.77-3.58 2.69-8.39 2.36-11.43-0.62-3.34-3.28-3.68-7.99-0.72-11.77 1.02-1.31 2.28-2.43 3.46-3.61 44.3-44.32 88.6-88.64 132.88-132.98 1.88-1.88 3.81-3.79 5.29-5.97 8.34-12.32 1.15-28.63-13.39-30.36-7.02-0.83-12.44 2.26-17.3 7.14-44.84 44.96-89.76 89.84-134.65 134.74-6.38 6.38-11.04 7.27-15.39 2.98-4.32-4.26-3.41-9.18 2.84-15.43 31.7-31.7 63.4-63.4 95.08-95.13 8.95-8.96 9.45-20.84 1.35-28.82-8.12-8.01-19.44-7.47-28.41 1.43-9.22 9.16-18.39 18.38-27.58 27.58-40.42 40.43-80.83 80.85-121.25 121.28-5.62 5.62-10.58 6.42-14.71 2.43-4.15-4-3.31-9.39 2.38-15.08 5.18-5.19 10.37-10.37 15.56-15.55 13.67-13.67 27.41-27.27 40.97-41.05 10.87-11.04 12.09-26.46 3.32-38.19-5.73-7.67-11.57-8.16-18.33-1.4-21.34 21.32-42.9 42.43-63.91 64.07-29.92 30.81-42.53 67.88-37.43 110.53 7.91 66.2 63.2 115 134.27 115.02zm-43.46 13.34c0.81 1.16 1.23 1.86 1.74 2.47 25.1 29.56 56.8 46.35 95.68 48.19 39.62 1.87 73.35-12.04 101.34-40.04 38.52-38.54 77.04-77.08 115.54-115.64 1.76-1.76 3.54-3.58 4.92-5.62 8.1-11.98 1.61-27.75-12.44-30.21-7.18-1.26-12.9 1.59-17.93 6.64-23.86 23.98-47.8 47.88-71.74 71.77-4.53 4.52-9.93 4.83-13.64 0.99-3.58-3.71-3.18-8.86 1.05-13.29 0.81-0.84 1.65-1.65 2.47-2.48 35.35-35.35 70.69-70.7 106.03-106.06 1.53-1.53 3.11-3.04 4.42-4.75 6.23-8.12 5.24-20.32-2.09-26.8-7.46-6.6-18.76-6.24-26.28 0.96-4.45 4.26-8.84 8.61-13.01 13.14-1.05 1.14-1.91 3.3-1.6 4.72 3.48 16.06-1.83 29.02-13.24 40.21-14.75 14.47-29.24 29.2-43.86 43.8-25.24 25.19-50 50.88-75.87 75.41-31.59 29.95-69.79 43.13-113.23 40.44-9.25-0.57-18.4-2.47-28.26-3.85zm264.16-214.04c9.9-9.88 19.92-19.84 29.9-29.85 3.41-3.41 7.03-6.68 10-10.44 6.59-8.32 5.4-20.54-2.28-27.04-7.95-6.72-19.44-5.86-26.86 2.24-1.04 1.13-1.87 3.27-1.56 4.68 3.45 15.81-1.36 28.85-12.87 39.74-4.18 3.96-8.49 7.79-12.85 11.79 6.16 3.31 11.07 5.95 16.52 8.88z"/>
<path d="m512 11.57c-1.94 2.26-3.74 4.64-5.83 6.74-15.74 15.82-31.54 31.59-47.34 47.36-1.29 1.29-2.56 2.71-4.1 3.62-3.9 2.29-7.75 1.94-10.92-1.37-2.99-3.12-3.38-6.82-1.11-10.53 0.94-1.53 2.32-2.82 3.61-4.11 16-16.03 32.02-32.05 48.04-48.07 7.06-7.06 11.27-6.96 17.64 0.36 0.01 2 0.01 4 0.01 6z"/>
<path d="m512 81.58c-2.78 2.4-5.19 5.66-8.41 7.06-12.78 5.56-25.79 10.6-38.77 15.68-2.25 0.88-4.84 1.51-7.21 1.34-4.39-0.32-6.85-3.37-7.36-7.54-0.54-4.53 1.88-7.65 5.98-9.32 11.69-4.75 23.41-9.4 35.13-14.08 2-0.8 4.02-1.57 6.03-2.36 7.64-2.99 10.39-2.01 14.61 5.22v4z"/>
<path d="m445.1 9.79c-0.41 1.15-0.88 2.93-1.66 4.54-6.56 13.63-13.15 27.24-19.8 40.82-3.05 6.23-7.84 8.26-12.84 5.64-4.74-2.48-5.89-7.33-3.01-13.32 6.71-13.92 13.43-27.84 20.27-41.7 2.32-4.71 6.19-6.51 10.65-5.18 4.17 1.25 6.15 4.27 6.39 9.2z"/>
</g>
<g>
<path class="st0" d="m153.19 427.52c-71.07-0.02-126.36-48.82-134.28-115.06-5.1-42.64 7.51-79.72 37.43-110.53 21.01-21.64 42.57-42.75 63.91-64.07 6.76-6.75 12.6-6.26 18.33 1.4 8.77 11.74 7.54 27.16-3.32 38.19-13.56 13.78-27.31 27.37-40.97 41.05-5.18 5.19-10.38 10.36-15.56 15.55-5.69 5.7-6.53 11.08-2.38 15.08 4.14 3.99 9.1 3.19 14.71-2.43 40.42-40.42 80.83-80.85 121.25-121.28 9.19-9.19 18.35-18.41 27.58-27.58 8.96-8.9 20.28-9.44 28.41-1.43 8.1 7.99 7.6 19.86-1.35 28.82-31.67 31.73-63.38 63.42-95.08 95.13-6.25 6.25-7.16 11.17-2.84 15.43 4.36 4.3 9.02 3.4 15.39-2.98 44.9-44.9 89.81-89.78 134.65-134.74 4.87-4.88 10.29-7.98 17.3-7.14 14.54 1.73 21.74 18.04 13.39 30.36-1.48 2.18-3.41 4.09-5.29 5.97-44.28 44.34-88.58 88.66-132.88 132.98-1.18 1.18-2.44 2.3-3.46 3.61-2.95 3.78-2.62 8.49 0.72 11.77 3.04 2.99 7.85 3.31 11.43 0.62 1.45-1.09 2.7-2.47 4-3.77 36.18-36.18 72.39-72.32 108.49-108.58 6.02-6.05 12.88-8.23 20.91-5.7 12.59 3.97 16.82 19.15 8.59 30.35-1.37 1.87-3.07 3.5-4.72 5.15-35.34 35.37-70.7 70.72-106.03 106.09-1.52 1.53-3.18 3.04-4.25 4.87-2.19 3.76-1.56 7.47 1.53 10.48 3.1 3.02 6.82 3.44 10.53 1.23 1.68-1 3.06-2.55 4.47-3.96 23.23-23.21 46.47-46.4 69.62-69.67 5.57-5.6 11.96-8.58 19.82-6.66 13.08 3.21 18.45 17.63 11.03 29.46-1.49 2.37-3.47 4.47-5.46 6.46-38.26 38.34-76.61 76.59-114.83 114.97-26.32 26.49-58.11 39.85-90.79 40.56z"/>
<path class="st0" d="m109.73 440.86c9.85 1.38 19.01 3.27 28.24 3.84 43.45 2.69 81.65-10.49 113.23-40.44 25.87-24.53 50.63-50.22 75.87-75.41 14.63-14.6 29.12-29.33 43.86-43.8 11.41-11.2 16.72-24.15 13.24-40.21-0.31-1.42 0.55-3.58 1.6-4.72 4.17-4.53 8.56-8.87 13.01-13.14 7.52-7.2 18.82-7.56 26.28-0.96 7.33 6.48 8.32 18.69 2.09 26.8-1.31 1.71-2.89 3.22-4.42 4.75-35.34 35.36-70.68 70.71-106.03 106.06-0.82 0.82-1.67 1.63-2.47 2.48-4.23 4.43-4.63 9.58-1.05 13.29 3.71 3.84 9.11 3.54 13.64-0.99 23.94-23.89 47.88-47.8 71.74-71.77 5.02-5.05 10.74-7.9 17.93-6.64 14.05 2.46 20.53 18.23 12.44 30.21-1.38 2.05-3.16 3.86-4.92 5.62-38.5 38.56-77.02 77.1-115.54 115.64-27.99 28-61.72 41.92-101.34 40.04-38.87-1.84-70.58-18.63-95.68-48.19-0.49-0.59-0.9-1.3-1.72-2.46z"/>
<path class="st0" d="m373.89 226.82c-5.45-2.93-10.36-5.57-16.52-8.89 4.36-3.99 8.67-7.83 12.85-11.79 11.51-10.89 16.32-23.93 12.87-39.74-0.31-1.4 0.53-3.55 1.56-4.68 7.42-8.1 18.91-8.96 26.86-2.24 7.68 6.5 8.87 18.72 2.28 27.04-2.98 3.76-6.6 7.02-10 10.44-9.98 10.02-20 19.98-29.9 29.86z"/>
</g>
</g>
</g>
</svg>
